<?xml version="1.0" standalone="no"?><!DOCTYPE svg PUBLIC "-//W3C//DTD SVG 1.1//EN" "http://www.w3.org/Graphics/SVG/1.1/DTD/svg11.dtd"><svg t="1727684407352" class="icon" viewBox="0 0 1024 1024" version="1.1" xmlns="http://www.w3.org/2000/svg" p-id="2589" xmlns:xlink="http://www.w3.org/1999/xlink" width="256" height="256"><path d="M800 576h-64v-128h64v32h160v288l-448 256-448-256v-96h64v60.8l384 217.6 384-217.6V544h-96v32z m-256-256v384h-64V320h64z m-128 64v256h-64v-256h64z m256 0v256h-64v-256h64zM512 0l448 256v96h-64V294.4L512 73.6 128 294.4V480h96v-32h64v128H224v-32H64V256l448-256z" fill="#0052D9" p-id="2590"></path></svg>